# xmcd CD database file
#
# Track frame offsets:
#	150
#	21315
#	37527
#	56117
#	82254
#	92557
#	112447
#	133787
#	150127
#	169325
#	191905
#
# Disc length: 2884 seconds
#
# Revision: 0
# Processed by: cddbd v1.5.1PL0 Copyright (c) Steve Scherf et al.
# Submitted via: CDex 1.51
#
DISCID=930b420b
DTITLE=Scott Williamson - Do You Hear What I Hear? 
DYEAR=1997
DGENRE=Jazz
TTITLE0=O Come, All Ye Faithful
TTITLE1=God Rest Ye Merry, Gentlemen
TTITLE2=Christmas Song, The
TTITLE3=O Come, O Come, Emmanuel
TTITLE4=Up On The Housetop
TTITLE5=Silent Night, Holy Night
TTITLE6=Hark! The Herald Angels Sing
TTITLE7=Do You Hear What I Hear?
TTITLE8=First Noel, The
TTITLE9=What Child Is This?
TTITLE10=We Three Kings
EXTD=YEAR: 1997
EXTT0=
EXTT1=
EXTT2=
EXTT3=
EXTT4=
EXTT5=
EXTT6=
EXTT7=
EXTT8=
EXTT9=
EXTT10=
PLAYORDER=
